<svg width="51" height="13" viewBox="0 0 51 13" fill="none" xmlns="http://www.w3.org/2000/svg">
<path d="M49.1868 8.24003C49.3068 8.08003 49.4868 7.98003 49.6868 7.98003C50.0268 7.98003 50.2868 8.24003 50.2868 8.58003C50.2868 8.70003 50.2468 8.82003 50.1868 8.92003C49.5068 9.88003 48.5268 10.38 47.4268 10.38C47.1468 10.38 46.8668 10.34 46.6068 10.26C46.0868 11.44 45.0668 12.36 43.8668 12.36C42.5668 12.36 41.7468 11.36 41.7468 9.84003C41.7468 7.46003 43.3868 5.06003 45.3068 5.06003C46.0068 5.06003 46.6068 5.44003 46.9468 5.98003C47.0068 6.08003 47.0468 6.18003 47.0468 6.30003C47.0468 6.64003 46.7868 6.90003 46.4468 6.90003C46.2268 6.90003 46.0468 6.78003 45.9468 6.62003C45.8068 6.40003 45.5668 6.26003 45.3068 6.26003C44.1868 6.26003 42.9468 8.02003 42.9468 9.84003C42.9468 10.76 43.2868 11.16 43.8668 11.16C44.5468 11.16 45.2268 10.5 45.5668 9.64003C45.2068 9.28003 44.9868 8.78003 44.9868 8.24003C44.9868 7.58003 45.4268 7.14003 46.0068 7.14003C46.5468 7.14003 46.9868 7.60003 46.9868 8.48003C46.9868 8.70003 46.9668 8.90003 46.9468 9.12003C47.0868 9.16003 47.2468 9.18003 47.4268 9.18003C48.1668 9.18003 48.7468 8.88003 49.1868 8.24003Z" fill="#100F0F"/>
<path d="M39.9707 9.80001C40.0907 9.70001 40.2507 9.62001 40.4107 9.62001C40.7507 9.62001 41.0107 9.88001 41.0107 10.22C41.0107 10.38 40.9507 10.52 40.8507 10.64C40.2307 11.26 39.1707 11.86 38.0707 11.86C36.6307 11.86 35.6907 10.96 35.6907 9.44001C35.6907 7.40001 37.5307 4.92001 39.2907 4.92001C40.1107 4.92001 40.7707 5.56001 40.7707 6.42001C40.7707 8.06001 39.1707 9.10001 36.8907 9.22001V9.44001C36.8907 10.28 37.2707 10.66 38.0707 10.66C38.8107 10.66 39.5507 10.26 39.9707 9.80001ZM37.2507 8.00001C38.7307 7.82001 39.5707 7.18001 39.5707 6.42001C39.5707 6.22001 39.4707 6.12001 39.2907 6.12001C38.6307 6.12001 37.7507 6.98001 37.2507 8.00001Z" fill="#100F0F"/>
<path d="M41.6927 2.48002C41.7727 2.42002 41.8727 2.40002 41.9727 2.40002C42.3127 2.40002 42.5727 2.66002 42.5727 3.00002C42.5727 3.22002 42.4527 3.42002 42.2527 3.52002C41.1527 4.12002 37.7727 4.60002 34.4127 5.00002C33.5327 7.82002 33.0527 9.88002 33.0527 10.88C33.0527 11.54 33.2127 11.72 33.4727 11.72C33.6327 11.72 33.8327 11.64 33.9727 11.56C34.0727 11.5 34.1727 11.48 34.2727 11.48C34.6127 11.48 34.8727 11.74 34.8727 12.08C34.8727 12.3 34.7527 12.5 34.5727 12.6C34.2727 12.76 33.8527 12.92 33.4727 12.92C32.5527 12.92 31.8527 12.26 31.8527 10.88C31.8527 10.4 31.9327 9.74002 32.1127 8.92002C30.8727 10.68 29.4927 12.02 28.2927 12.02C27.2527 12.02 26.5927 11.24 26.5927 9.96002C26.5927 9.00002 26.9927 7.38002 27.4527 5.92002C27.0727 6.00002 26.7927 6.06002 26.5927 6.14003C26.5327 6.16002 26.4727 6.18002 26.3927 6.18002C26.0527 6.18002 25.7927 5.92003 25.7927 5.58002C25.7927 5.32003 25.9527 5.10002 26.1927 5.02002C26.5527 4.90002 27.1327 4.78002 27.8527 4.64002L28.4727 2.90002C28.5527 2.68002 28.7727 2.52002 29.0327 2.52002C29.3727 2.52002 29.6327 2.78002 29.6327 3.12002C29.6327 3.20002 29.6127 3.26002 29.5927 3.34002L29.1927 4.44002C30.4527 4.28002 31.9527 4.10002 33.4727 3.92002L33.7527 3.18002L33.8527 2.90002L33.8927 2.82002C33.9727 2.60002 34.1927 2.46002 34.4327 2.46002C34.8727 2.46002 35.1127 2.90002 34.9927 3.26002L34.8727 3.60002L34.8327 3.74002C37.8927 3.36002 40.7927 2.96002 41.6927 2.48002ZM27.7927 9.96002C27.7927 10.62 27.9727 10.82 28.2927 10.82C29.4127 10.82 31.4727 8.04002 32.8727 5.20002C31.3527 5.38002 29.9127 5.54002 28.7727 5.72002C28.2927 7.22002 27.7927 9.00002 27.7927 9.96002Z" fill="#100F0F"/>
<path d="M26.7083 8.22003C26.8083 8.08003 26.9883 7.98003 27.1883 7.98003C27.5283 7.98003 27.7883 8.24003 27.7883 8.58003C27.7883 8.72003 27.7483 8.84003 27.6683 8.94003C26.6883 10.26 25.3083 11.76 24.3283 11.76C23.6483 11.76 23.0883 11.26 22.8683 10.34C21.8283 11.44 20.6083 12.36 19.6483 12.36C18.7883 12.36 18.0483 11.76 18.0483 10.5C18.0483 7.96003 20.3283 5.12003 22.2483 5.12003C22.9283 5.12003 23.5483 5.60003 23.8083 6.16003C23.9283 6.10003 24.0683 6.06003 24.1883 6.06003C24.6283 6.06003 24.9683 6.42003 24.9683 6.90003C24.9683 7.36003 24.5883 8.12003 24.0083 8.94003L23.9883 9.48003C23.9883 10.26 24.2283 10.56 24.3283 10.56C24.6083 10.56 25.8083 9.46003 26.7083 8.22003ZM22.7483 6.72003C22.7483 6.62003 22.4883 6.32003 22.2483 6.32003C21.1083 6.32003 19.2483 8.54003 19.2483 10.5C19.2483 11 19.3883 11.16 19.6483 11.16C20.4483 11.16 21.8883 9.72003 22.8283 8.50003C22.8683 8.18003 22.9083 7.88003 22.9683 7.62003C22.7683 7.54003 22.6283 7.32003 22.6283 7.08003C22.6283 6.94003 22.6683 6.82003 22.7483 6.72003Z" fill="#100F0F"/>
<path d="M11.42 0.38C11.5 0.160001 11.72 0 11.98 0H12.02C12.4 0 12.68 0.36 12.6 0.72C11.92 3.84 11.46 6.6 11.46 7.54C11.46 7.74 11.44 7.84 11.44 7.9C11.98 7.52 15.06 4.08 17.5 0.340001C17.6 0.160001 17.78 0.0600004 18 0.0600004H18.04C18.38 0.0600004 18.64 0.320001 18.64 0.66C18.64 0.74 18.62 0.820001 18.6 0.880001C16.82 5.26 15.3 8.76 15.3 10.74C15.3 11.18 15.42 11.38 15.52 11.44C15.74 11.52 15.88 11.74 15.88 11.98C15.88 12.32 15.62 12.58 15.28 12.58C15.2 12.58 15.12 12.56 15.04 12.52C14.52 12.3 14.1 11.72 14.1 10.74C14.1 9.32 14.72 7.36 15.64 5C13.92 7.22 12.16 9.14 11.36 9.14C10.72 9.14 10.26 8.66 10.26 7.54C10.26 7.02 10.38 6.08 10.58 4.88C8.28 8.88 5.04 12.58 2.58 12.58C0.94 12.58 0 11.3 0 9.48C0 6.52 2.26 3.54 4.56 3.54C5.7 3.54 6.54 4.44 6.54 5.46C6.54 5.86 6.44 6.34 6.22 6.72C6.12 6.92 5.92 7.04 5.7 7.04C5.36 7.04 5.1 6.78 5.1 6.44C5.1 6.34 5.12 6.24 5.18 6.16C5.28 5.94 5.34 5.7 5.34 5.46C5.34 5.08 5.02 4.74 4.56 4.74C3.02 4.74 1.2 7.1 1.2 9.48C1.2 10.74 1.7 11.38 2.58 11.38C5.04 11.38 9.52 5.32 11.42 0.38Z" fill="#100F0F"/>
</svg>
