<svg width="91" height="15" viewBox="0 0 91 15" fill="none" xmlns="http://www.w3.org/2000/svg">
<path d="M89.1686 8.27999C89.2686 8.13999 89.4486 8.03999 89.6486 8.03999C89.9886 8.03999 90.2486 8.29999 90.2486 8.63999C90.2486 8.77999 90.2086 8.89999 90.1286 8.99999C88.8086 10.76 86.7886 12 85.0086 12C84.2686 12 83.6086 11.78 83.1286 11.38C81.9086 12.1 80.5686 12.58 79.3686 12.58C77.6486 12.58 76.5686 11.5 76.5686 9.75999C76.5686 7.51999 78.4286 4.95999 80.2086 4.95999C80.9086 4.95999 81.5286 5.41999 81.7286 6.05999C81.8286 6.43999 81.5486 6.83999 81.1486 6.83999C80.8686 6.83999 80.6486 6.65999 80.5686 6.41999C80.5286 6.25999 80.3886 6.15999 80.2086 6.15999C79.2486 6.15999 77.7686 8.05999 77.7686 9.75999C77.7686 10.84 78.3086 11.38 79.3686 11.38C80.3286 11.38 81.4286 10.98 82.4486 10.38C82.3486 10.1 82.2886 9.77999 82.2886 9.41999C82.2886 7.41999 84.0086 4.93999 85.6086 4.93999C86.3086 4.93999 86.9686 5.41999 86.9686 6.41999C86.9686 7.81999 85.7886 9.41999 84.2086 10.64C84.4286 10.74 84.7086 10.8 85.0086 10.8C86.3486 10.8 88.0486 9.79999 89.1686 8.27999ZM83.4886 9.41999L83.5086 9.65999C84.8086 8.65999 85.7686 7.37999 85.7686 6.41999C85.7686 6.15999 85.7286 6.13999 85.6086 6.13999C84.8486 6.13999 83.4886 7.93999 83.4886 9.41999Z" fill="#100F0F"/>
<path d="M76.7347 8.27999C76.8347 8.13999 77.0147 8.03999 77.2147 8.03999C77.5547 8.03999 77.8147 8.29999 77.8147 8.63999C77.8147 8.77999 77.7747 8.89999 77.6947 8.99999C76.5947 10.48 75.1747 11.7 74.2347 11.7C73.5147 11.7 72.8547 11.16 72.8547 9.99999C72.8547 8.83999 73.2747 7.31999 73.2747 6.53999V6.41999C72.6547 6.43999 69.9547 8.69999 68.3347 11.08C68.2747 11.34 68.0347 11.56 67.7347 11.56C67.4347 11.56 67.1947 11.34 67.1347 11.06C67.0947 10.82 67.0747 10.52 67.0747 10.24C67.0747 8.81999 67.7547 6.89999 67.7547 6.05999V5.93999C67.6747 5.83999 67.6147 5.69999 67.6147 5.55999C67.6147 5.21999 67.8747 4.95999 68.2147 4.95999C68.3947 4.95999 68.5747 5.03999 68.6747 5.17999C68.8547 5.37999 68.9547 5.69999 68.9547 6.05999C68.9547 6.79999 68.6347 7.91999 68.4347 8.95999C70.1347 6.93999 72.2547 5.21999 73.2947 5.21999C73.9547 5.21999 74.4747 5.57999 74.4747 6.53999C74.4747 7.47999 74.0547 8.99999 74.0547 9.99999C74.0547 10.42 74.1347 10.5 74.2347 10.5C74.5947 10.5 75.7547 9.59999 76.7347 8.27999Z" fill="#100F0F"/>
<path d="M67.3101 8.27999C67.4101 8.13999 67.5901 8.03999 67.7901 8.03999C68.1301 8.03999 68.3901 8.29999 68.3901 8.63999C68.3901 8.77999 68.3501 8.89999 68.2701 8.99999C67.2901 10.32 65.9101 11.82 64.9301 11.82C64.2501 11.82 63.6901 11.32 63.4701 10.4C62.4301 11.5 61.2101 12.42 60.2501 12.42C59.3901 12.42 58.6501 11.82 58.6501 10.56C58.6501 8.01999 60.9301 5.17999 62.8501 5.17999C63.5301 5.17999 64.1501 5.65999 64.4101 6.21999C64.5301 6.15999 64.6701 6.11999 64.7901 6.11999C65.2301 6.11999 65.5701 6.47999 65.5701 6.95999C65.5701 7.41999 65.1901 8.17999 64.6101 8.99999L64.5901 9.53999C64.5901 10.32 64.8301 10.62 64.9301 10.62C65.2101 10.62 66.4101 9.51999 67.3101 8.27999ZM63.3501 6.77999C63.3501 6.67999 63.0901 6.37999 62.8501 6.37999C61.7101 6.37999 59.8501 8.59999 59.8501 10.56C59.8501 11.06 59.9901 11.22 60.2501 11.22C61.0501 11.22 62.4901 9.77999 63.4301 8.55999C63.4701 8.23999 63.5101 7.93999 63.5701 7.67999C63.3701 7.59999 63.2301 7.37999 63.2301 7.13999C63.2301 6.99999 63.2701 6.87999 63.3501 6.77999Z" fill="#100F0F"/>
<path d="M58.873 7.25999C58.893 7.61999 58.613 7.91999 58.273 7.91999C57.953 7.91999 57.693 7.67999 57.673 7.37999C57.613 6.65999 57.393 6.35999 57.253 6.35999C56.753 6.35999 55.333 8.33999 54.113 11.64C54.033 11.88 53.813 12.04 53.533 12.04C53.233 12.04 52.973 11.8 52.933 11.5C52.793 10.2 53.173 7.33999 53.733 5.85999C53.813 5.61999 54.033 5.45999 54.293 5.45999C54.633 5.45999 54.893 5.71999 54.893 6.05999C54.893 6.13999 54.873 6.19999 54.853 6.25999C54.693 6.71999 54.533 7.33999 54.413 7.99999C55.333 6.25999 56.333 5.15999 57.253 5.15999C58.173 5.15999 58.753 5.99999 58.873 7.25999Z" fill="#100F0F"/>
<path d="M53.713 1.66C53.773 1.76 53.813 1.88 53.813 2C53.813 2.34 53.553 2.6 53.213 2.6C53.013 2.6 52.833 2.5 52.713 2.34C52.513 2.06 52.073 1.88 50.913 1.88C49.873 1.88 48.893 2.02 47.993 2.18C47.653 3.5 47.233 4.76 46.853 5.88C48.693 5.48 50.533 5.28 52.093 5.32C52.433 5.32 52.693 5.58 52.693 5.92C52.693 6.26 52.433 6.52 52.093 6.52C50.373 6.48 48.353 6.72 46.413 7.22C45.833 8.88 45.393 10.18 45.393 10.94C45.393 11.04 45.393 11.16 45.433 11.18C45.593 11.28 45.693 11.48 45.693 11.68C45.693 12.02 45.433 12.28 45.093 12.28C44.973 12.28 44.853 12.24 44.753 12.18C44.473 11.98 44.193 11.62 44.193 10.94C44.193 10.16 44.533 9 44.993 7.6L44.393 7.8C44.033 7.92 43.593 7.68 43.593 7.24C43.593 6.98 43.753 6.76 43.993 6.68C44.473 6.52 44.973 6.36 45.473 6.22C45.873 5.06 46.313 3.78 46.693 2.42C46.033 2.54 45.433 2.64 44.913 2.64C44.573 2.64 44.313 2.38 44.313 2.04C44.313 1.7 44.573 1.44 44.913 1.44C45.473 1.44 46.173 1.3 47.033 1.14V1.1C47.093 0.84 47.333 0.639999 47.613 0.639999C47.833 0.639999 48.033 0.76 48.133 0.940001C48.973 0.8 49.913 0.68 50.913 0.68C52.393 0.68 53.233 0.96 53.713 1.66Z" fill="#100F0F"/>
<path d="M37.0141 13.56C36.9741 13.86 36.7141 14.1 36.4141 14.1C36.0541 14.1 35.7741 13.78 35.8141 13.44C35.9541 12.24 37.1941 10.66 37.2941 9.84C37.3341 9.54 37.5941 9.3 37.8941 9.3C38.2541 9.3 38.5341 9.62 38.4941 9.96C38.3541 11.2 37.1141 12.64 37.0141 13.56Z" fill="#100F0F"/>
<path d="M31.6241 11.52C31.4841 11.4 31.3841 11.24 31.3841 11.04C31.3841 10.7 31.6441 10.44 31.9841 10.44C32.1241 10.44 32.2441 10.48 32.3441 10.56C32.6241 10.78 32.9841 10.9 33.3441 10.9C33.9241 10.9 34.3041 10.54 34.3041 10.08C34.3041 9.66 34.0841 9.22 33.3041 8.22L32.9441 7.76L32.0441 9C31.9441 9.14 31.7641 9.24 31.5641 9.24C31.2241 9.24 30.9641 8.98 30.9641 8.64C30.9641 8.5 31.0041 8.38 31.0841 8.28C31.5041 7.7 31.9041 7.16 32.2041 6.68C31.9841 6.28 31.8841 5.92 31.8841 5.54C31.8841 4.8 32.3241 4.28 32.9241 4.28C33.4841 4.28 33.9441 4.72 33.9441 5.46C33.9441 5.82 33.8041 6.22 33.6041 6.66L34.2241 7.46C35.1441 8.62 35.5041 9.3 35.5041 10.08C35.5041 11.26 34.5241 12.1 33.3441 12.1C32.7041 12.1 32.0641 11.86 31.6241 11.52Z" fill="#100F0F"/>
<path d="M31.0807 8.27999C31.1807 8.13999 31.3607 8.03999 31.5607 8.03999C31.9007 8.03999 32.1607 8.29999 32.1607 8.63999C32.1607 8.77999 32.1207 8.89999 32.0407 8.99999C30.8807 10.58 29.0607 12.08 28.1007 12.08C27.3807 12.08 26.7207 11.58 26.7207 10.46C26.7207 9.21999 27.3407 7.11999 27.8007 5.83999C27.8807 5.59999 28.1007 5.43999 28.3607 5.43999C28.8007 5.43999 29.0407 5.87999 28.9207 6.23999C28.5007 7.47999 27.9207 9.37999 27.9207 10.46C27.9207 10.82 27.9807 10.88 28.1007 10.88C28.4407 10.88 30.0407 9.69999 31.0807 8.27999ZM30.8407 3.09999C30.8007 3.37999 30.5407 3.57999 30.2607 3.57999C29.8807 3.57999 29.6007 3.23999 29.6807 2.85999C29.8207 2.19999 30.2807 1.09999 30.9207 0.639989C31.0207 0.55999 31.1407 0.519989 31.2807 0.519989C31.6207 0.519989 31.8807 0.779989 31.8807 1.11999C31.8807 1.31999 31.7807 1.49999 31.6407 1.59999C31.3007 1.85999 30.9407 2.61999 30.8407 3.09999Z" fill="#100F0F"/>
<path d="M26.5097 7.25999C26.5297 7.61999 26.2497 7.91999 25.9097 7.91999C25.5897 7.91999 25.3297 7.67999 25.3097 7.37999C25.2497 6.65999 25.0297 6.35999 24.8897 6.35999C24.3897 6.35999 22.9697 8.33999 21.7497 11.64C21.6697 11.88 21.4497 12.04 21.1697 12.04C20.8697 12.04 20.6097 11.8 20.5697 11.5C20.4297 10.2 20.8097 7.33999 21.3697 5.85999C21.4497 5.61999 21.6697 5.45999 21.9297 5.45999C22.2697 5.45999 22.5297 5.71999 22.5297 6.05999C22.5297 6.13999 22.5097 6.19999 22.4897 6.25999C22.3297 6.71999 22.1697 7.33999 22.0497 7.99999C22.9697 6.25999 23.9697 5.15999 24.8897 5.15999C25.8097 5.15999 26.3897 5.99999 26.5097 7.25999Z" fill="#100F0F"/>
<path d="M20.8453 8.27999C20.9453 8.13999 21.1253 8.03999 21.3253 8.03999C21.6653 8.03999 21.9253 8.29999 21.9253 8.63999C21.9253 8.77999 21.8853 8.89999 21.8053 8.99999C20.8253 10.32 19.4453 11.82 18.4653 11.82C17.7853 11.82 17.2253 11.32 17.0053 10.4C15.9653 11.5 14.7453 12.42 13.7853 12.42C12.9253 12.42 12.1853 11.82 12.1853 10.56C12.1853 8.01999 14.4653 5.17999 16.3853 5.17999C17.0653 5.17999 17.6853 5.65999 17.9453 6.21999C18.0653 6.15999 18.2053 6.11999 18.3253 6.11999C18.7653 6.11999 19.1053 6.47999 19.1053 6.95999C19.1053 7.41999 18.7253 8.17999 18.1453 8.99999L18.1253 9.53999C18.1253 10.32 18.3653 10.62 18.4653 10.62C18.7453 10.62 19.9453 9.51999 20.8453 8.27999ZM16.8853 6.77999C16.8853 6.67999 16.6253 6.37999 16.3853 6.37999C15.2453 6.37999 13.3853 8.59999 13.3853 10.56C13.3853 11.06 13.5253 11.22 13.7853 11.22C14.5853 11.22 16.0253 9.77999 16.9653 8.55999C17.0053 8.23999 17.0453 7.93999 17.1053 7.67999C16.9053 7.59999 16.7653 7.37999 16.7653 7.13999C16.7653 6.99999 16.8053 6.87999 16.8853 6.77999Z" fill="#100F0F"/>
<path d="M4.24025 11.72C4.14025 11.88 3.94025 11.98 3.74025 11.98C3.40025 11.98 3.14025 11.72 3.14025 11.38C3.14025 11.26 3.18025 11.14 3.24025 11.04C3.62025 10.46 4.26025 9.12 4.88025 7.58C4.54025 7.58 4.28025 7.32 4.28025 6.98C4.28025 6.64 4.54025 6.38 4.88025 6.38H5.32025C5.90025 4.82 6.36025 3.2 6.44025 2.1C6.46025 1.78 6.72025 1.54 7.04025 1.54C7.38025 1.54 7.66025 1.84 7.64025 2.18C7.54025 3.28 7.14025 4.78 6.62025 6.28C10.5003 5.86 13.1203 4.12 13.0803 2.8C13.0603 1.98 11.9203 1.2 9.46025 1.2C5.50025 1.2 1.78025 3.46 1.26025 3.92C1.44025 4.02 1.56025 4.22 1.56025 4.44C1.56025 4.78 1.30025 5.04 0.960253 5.04C0.880253 5.04 0.780253 5.02 0.720253 4.98C0.280253 4.78 0.000253515 4.42 0.000253515 4C-0.0397466 2.68 4.66025 0 9.46025 0C12.5203 0 14.2603 1.14 14.2803 2.76C14.3603 5.02 10.8603 7.18 6.18025 7.54C5.48025 9.36 4.70025 11.02 4.24025 11.72ZM1.20025 4C1.20025 4 1.24025 3.98 1.24025 3.94C1.22025 3.98 1.20025 4 1.20025 4Z" fill="#100F0F"/>
</svg>
